<svg width="862" height="722" fill="none" xmlns="http://www.w3.org/2000/svg">
    <ellipse cx="409.773" cy="524.908" rx="355.695" ry="173.547" transform="rotate(3.751 409.773 524.908)" fill="#000" fill-opacity=".25"/>
    <path d="M341.243 665.974c-63.211-1.607-155.796-124.323-194.186-185.48-30.498 5.279-75.245 6.714-103.646 5.131-11.365-.633-20.29-9.149-21.945-20.41-5.604-38.15-10.966-111.642 1.08-209.775C36.992 137.758 175.317 59.654 242.673 35.313c13.89-3.709 32.638-7.5 54.684-10.386 6.101-5.929 32.637-21.311 52.714-4.722h7.051c64.248-1.825 140.501 6.49 206.283 39.184 143.598 71.37 131.741 325.025 129.261 332.722-.465 3.932 11.144 6.049 1.203 7.882 13.386-2.021-6.321 10.297-1.203 12.502l34.08 41.252 31.807 31.359 47.785 45.992 38.228 39.871c3.036 2.688 7.585 9.407 1.493 14.783-6.093 5.376-10.529 3.046-11.985 1.209-48.278-38.728-84.496-32.079-101.467-32.079-54.382 0-181.108 54.176-201.865 63.55-20.758 9.375-110.486 49.551-189.499 47.542Z" fill="#FFB906"/>
    <path d="m147.057 480.494-1.771-11.869-.138.021-.138.023 2.047 11.825Zm194.186 185.48.305-11.996-.305 11.996Zm492.831-79.013 9.403-7.455-.84-1.06-1.054-.846-7.509 9.361Zm10.492-15.992-8.662 8.305.34.354.368.326 7.954-8.985Zm-38.228-39.871 8.662-8.305-.167-.174-.174-.167-8.321 8.646Zm-47.785-45.992-8.425 8.545.051.051.052.05 8.322-8.646Zm-31.807-31.359-9.251 7.643.39.472.436.43 8.425-8.545Zm-34.08-41.252 9.251-7.643-1.844-2.232-2.659-1.146-4.748 11.021Zm0-20.384-11.422-3.68-.358 1.111-.137 1.159 11.917 1.41ZM563.405 59.39l5.341-10.746-5.341 10.745ZM242.673 35.313l-3.095-11.594-.499.133-.484.175 4.078 11.286ZM22.546 255.44l-11.91-1.462 11.91 1.462Zm-1.08 209.775 11.872-1.745-11.872 1.745Zm21.944 20.41.668-11.981-.668 11.981Zm313.712-465.42v12h.17l.17-.005-.34-11.995ZM161.583 492.307c6.525-1.164 10.87-7.397 9.706-13.921-1.164-6.524-7.396-10.87-13.921-9.706l4.215 23.627Zm531.083-92.111-2.193-11.798c-6.45 1.2-10.742 7.356-9.635 13.823 1.107 6.466 7.201 10.845 13.683 9.831l-1.855-11.856Zm-555.773 86.677c19.484 31.038 52.675 77.652 89.164 116.867 18.236 19.598 37.582 37.661 56.706 51.014 18.867 13.174 38.869 22.726 58.175 23.217l.61-23.993c-12.3-.312-27.575-6.703-45.045-18.902-17.214-12.019-35.265-28.759-52.876-47.685-35.204-37.834-67.5-83.158-86.407-113.277l-20.327 12.759Zm204.045 191.098c82.143 2.088 174.267-39.355 194.743-48.602l-9.878-21.873c-21.04 9.502-108.372 48.412-184.255 46.482l-.61 23.993Zm194.743-48.602c10.147-4.583 46.716-20.343 87.431-34.93 20.355-7.293 41.589-14.236 60.985-19.341 19.613-5.162 36.511-8.216 48.51-8.216v-24c-15.192 0-34.528 3.718-54.62 9.007-20.308 5.345-42.25 12.533-62.969 19.956-41.433 14.844-78.605 30.859-89.215 35.651l9.878 21.873Zm196.926-62.487c10.041 0 21.044-1.596 36.814 1.317 15.211 2.809 34.513 9.968 57.144 28.122l15.018-18.721c-25.647-20.573-48.593-29.454-67.803-33.002-18.651-3.445-34.242-1.716-41.173-1.716v24Zm92.063 27.534c2.633 3.321 7.118 6.227 12.84 6.617 6.017.411 11.681-2.041 16.488-6.283l-15.879-17.996c-1.285 1.134-.885.205 1.027.335 1.617.111 3.155.933 4.331 2.417l-18.807 14.91Zm29.328.334c3.075-2.712 5.35-6.116 6.416-10.09 1.047-3.907.714-7.567-.126-10.554-1.573-5.599-5.157-9.81-7.768-12.122l-15.908 17.97c.069.061.277.272.468.547.199.287.172.341.103.098-.084-.299-.232-1.104.049-2.154.136-.506.338-.932.546-1.255.202-.315.357-.449.341-.436l15.879 17.996Zm-.77-32.086L815 522.793l-17.324 16.61 38.228 39.871 17.324-16.61Zm-38.569-40.212-47.785-45.992-16.643 17.292 47.785 45.992 16.643-17.292Zm-47.681-45.892-31.807-31.358-16.85 17.09 31.807 31.359 16.85-17.091Zm-30.981-30.456-34.08-41.252-18.502 15.286 34.08 41.252 18.502-15.286Zm-31.909-50.312c.465-1.444.658-2.981.736-3.583.122-.954.234-2.085.337-3.34.207-2.527.4-5.871.545-9.906.291-8.084.397-19.168-.003-32.412-.798-26.466-3.621-61.817-11.122-99.28-14.836-74.1-48.778-160.33-125.835-198.627l-10.682 21.491c66.541 33.072 98.47 109.355 112.984 181.848 7.175 35.834 9.898 69.801 10.666 95.291.384 12.733.279 23.287.007 30.826-.135 3.777-.311 6.742-.48 8.812a53.709 53.709 0 0 1-.222 2.243c-.105.813-.085.238.225-.724l22.844 7.361ZM238.595 24.027c-34.773 12.567-87.463 38.818-133.502 77.122-45.908 38.196-86.703 89.658-94.458 152.829l23.822 2.924c6.69-54.511 42.281-100.941 85.986-137.303 43.574-36.254 93.725-61.225 126.308-73l-8.156-22.572ZM10.635 253.978c-12.183 99.251-6.794 173.821-1.042 212.981l23.745-3.489c-5.455-37.14-10.79-109.552 1.118-206.568l-23.82-2.924Zm32.108 243.628c29.076 1.621 74.763.182 106.361-5.288l-4.094-23.649c-29.398 5.09-73.206 6.52-100.932 4.975l-1.335 23.962ZM568.746 48.644c-68.208-33.9-146.653-42.29-211.965-40.434l.681 23.99c63.184-1.794 137.245 6.447 200.602 37.935l10.682-21.491ZM295.799 13.029c-22.485 2.944-41.754 6.828-56.221 10.69l6.19 23.188c13.313-3.554 31.54-7.253 53.147-10.081l-3.116-23.797ZM148.827 492.362c4.549-.678 6.852-.895 7.879-.937.591-.025.224.036-.581-.092a10.426 10.426 0 0 1-2.727-.84 11.62 11.62 0 0 1-5.251-4.864 11.77 11.77 0 0 1-1.218-8.394 11.404 11.404 0 0 1 1.413-3.453c.239-.386.536-.787.331-.502-.04.056-.201.28-.385.564a12.63 12.63 0 0 0-.871 1.586 12.175 12.175 0 0 0-1.07 4.089 12.075 12.075 0 0 0 2.007 7.707 12.103 12.103 0 0 0 5.434 4.444c1.445.597 2.696.786 3.383.861 1.345.146 2.456.04 2.891-.005.571-.059 1.1-.144 1.521-.219l-4.215-23.627c-.117.021-.011-.002.231-.027.105-.011.981-.111 2.162.018.606.065 1.794.24 3.19.817a11.896 11.896 0 0 1 5.335 4.37 11.925 11.925 0 0 1 1.982 7.605 11.806 11.806 0 0 1-1.033 3.964 11.389 11.389 0 0 1-.789 1.442c-.151.234-.275.404-.275.405-.125.174.259-.345.573-.853a12.57 12.57 0 0 0 1.577-3.818c.511-2.224.574-5.487-1.258-8.743-1.693-3.009-4.163-4.493-5.626-5.167a13.562 13.562 0 0 0-3.563-1.065c-1.545-.245-3.045-.229-4.152-.183-2.366.097-5.714.475-10.436 1.18l3.541 23.737ZM298.428 36.879l52.714-4.722L349 8.253l-52.714 4.722 2.142 23.904Zm58.694-28.674h-7.051v24h7.051v-24Zm340.292 393.269a10.525 10.525 0 0 1 4.564 3.854 10.816 10.816 0 0 1 1.809 6.418c-.069 1.624-.5 2.775-.698 3.245a5.453 5.453 0 0 1-.409.812c-.017.027.031-.05.19-.255.153-.199.357-.45.63-.774.276-.327.571-.669.926-1.078.335-.387.731-.845 1.119-1.305.702-.834 1.771-2.133 2.67-3.58a16.947 16.947 0 0 0 1.565-3.189c.462-1.284 1.087-3.557.733-6.349a12.865 12.865 0 0 0-4.565-8.305c-2.274-1.884-4.677-2.588-6.184-2.884-2.855-.561-5.698-.257-7.686.043l3.581 23.731c1.359-.205.829.042-.522-.224-.755-.148-2.608-.615-4.505-2.188a11.133 11.133 0 0 1-3.928-7.151c-.297-2.34.24-4.096.497-4.811.283-.785.579-1.26.627-1.336.076-.123-.033.062-.638.78-.265.315-.554.65-.909 1.059-.335.388-.734.848-1.128 1.315-.734.87-1.776 2.142-2.679 3.55a18.709 18.709 0 0 0-1.516 2.856c-.467 1.112-1.059 2.862-1.15 5.029-.098 2.333.397 5.189 2.18 7.873 1.735 2.611 4.048 4.095 5.93 4.906l9.496-22.042Zm-5.336-13.347c-.524.079-1.06.17-1.605.271l4.386 23.596c.31-.057.576-.102.8-.136l-3.581-23.731Zm2.443 23.925a58.706 58.706 0 0 0 1.524-.258l-4.353-23.603c-.25.047-.542.096-.881.149l3.71 23.712Zm1.523-.258c1.528-.282 3.246-.671 4.866-1.286 1.063-.403 4.761-1.827 7.133-5.701a12.6 12.6 0 0 0 1.782-8.01 12.938 12.938 0 0 0-2.077-5.679c-1.348-2.041-3.046-3.35-3.545-3.739-.638-.498-1.511-1.111-1.72-1.262-.418-.302-.474-.36-.405-.297.031.027.668.582 1.298 1.67a9.793 9.793 0 0 1 1.207 6.031l-23.834-2.82c-.433 3.661.641 6.714 1.858 8.816 1.138 1.964 2.528 3.343 3.426 4.151.937.842 1.864 1.52 2.41 1.914l.408.292.313.224c.089.064.154.111.203.148l.054.04.018.013a8.065 8.065 0 0 1-.381-.336 9.451 9.451 0 0 1-1.337-1.62 11.055 11.055 0 0 1-1.744-4.851 11.402 11.402 0 0 1 1.598-7.218 10.77 10.77 0 0 1 3.258-3.39 8.19 8.19 0 0 1 1.561-.814c.351-.133.256-.055-.701.121l4.351 23.603ZM305.72 33.533c1.471-1.43 7.737-5.759 15.704-7.78 7.586-1.924 14.869-1.366 21.003 3.702l15.287-18.5C343.772-.566 327.748-.612 315.522 2.49c-11.845 3.005-21.898 9.332-26.528 13.832l16.726 17.211ZM9.593 466.959c2.445 16.643 15.835 29.682 33.15 30.647l1.335-23.962c-5.414-.302-9.876-4.294-10.74-10.174l-23.745 3.489Z" fill="#000"/>
    <path fill-rule="evenodd" clip-rule="evenodd" d="M538.784 372.688a11.835 11.835 0 0 1-.792-2.688c.258.893.522 1.789.792 2.688Z" fill="#17A4EB"/>
    <path d="M224.81 511.382c68.886 5.838 209.237 15.538 246.365-50.312 5.564-9.868 17.607-28.8 20.906-37.034 23.705-59.888-11.393-73.441-17.469-73.333-105.811 1.813-271.569-1.444-308.471 13.567-2.532 6.581-6.028 17.134-8.949 28.92-3.013 12.154-5.413 25.62-5.509 37.389-.026 3.139.113 6.158.447 8.998 3.503 29.773-4.616 65.254 72.68 71.805ZM698.546 407.178c19.16-35.709 19.264-77.285.309-136.515-.168-.528-.718-.832-1.243-.658-34.384 11.364-98.232 40.202-140.58 58.711-7.602 9.089-21.167 29.122-19.04 41.284.258.893.522 1.789.792 2.688 3.694 12.33 8.299 25.084 11.258 36.908 8.295 33.148 30.513 47.634 65.338 41.698 61.647-10.508 75.163-33.385 83.166-44.116Z" fill="#17A4EB"/>
    <path d="M532.945 339.055c-12.586 5.225-21.193 9.248-23.306 11.184-10.54.094-22.328.246-35.027.464 6.076-.108 41.174 13.445 17.469 73.333 5.494-13.425 29.997-30.191 57.961-14.44-2.959-11.824-7.564-24.578-11.258-36.908-3.606-12.034-6.344-23.664-5.839-33.633ZM166.141 364.27c-51.145-5.659-141.757-13.581-149.178 0 0 4.953 1.292 15.972 6.46 20.422 5.168 4.449 89.533 7.387 136.48 8.365 2.921-11.785 3.706-22.206 6.238-28.787Z" fill="#000"/>
    <path d="M166.141 364.27c36.902-15.011 202.66-11.754 308.471-13.567M166.141 364.27c-51.145-5.659-141.757-13.581-149.178 0 0 4.953 1.292 15.972 6.46 20.422 5.168 4.449 89.533 7.387 136.48 8.365m6.238-28.787c-2.532 6.581-3.317 17.002-6.238 28.787m314.709-42.354c12.699-.218 24.487-.37 35.027-.464 2.113-1.936 10.72-5.959 23.306-11.184m-58.333 11.648c6.076-.108 41.174 13.445 17.469 73.333m40.864-84.981c-.13 1.758.094-1.874 0 0Zm0 0c6.657-2.765 14.862-6.307 24.087-10.339m-24.087 10.339c-.505 9.969 2.233 21.599 5.839 33.633m-46.703 51.348c-3.299 8.234-15.342 27.166-20.906 37.034-37.128 65.85-169.071 53.841-237.956 48.003-77.296-6.551-72.525-35.949-76.027-65.721-.334-2.841-.026-16.176 0-19.316.096-11.769-.301-18.824 2.711-30.979m332.178 30.979c5.494-13.425 29.997-30.191 57.961-14.44m0 0c8.295 33.148 30.513 47.634 65.338 41.698 61.647-10.508 75.163-33.385 83.166-44.116 19.16-35.709 19.264-77.285.309-136.515-.168-.528-.718-.832-1.244-.658-34.383 11.364-98.231 40.202-140.579 58.711m-6.99 80.88c-2.959-11.824-7.564-24.578-11.258-36.908m18.248-43.972c-8.194 9.797-23.315 32.306-18.248 43.972" stroke="#000" stroke-width="32"/>
</svg>
